# xmcd
#
# Track frame offsets: 
#        150
#        17177
#        28072
#        39363
#        53772
#        73601
#        87626
#        103675
#        119244
#        131210
#        142280
#        155018
#        168770
#        185705
#        203748
#        223839
#
# Disc length: 3317 seconds
#
# Revision: 0
# Processed by: cddbd v1.5.2PL0 Copyright (c) Steve Scherf et al.
# Submitted via: ExactAudioCopyFreeDBPlugin 1.0
#
DISCID=fc0cf310
DTITLE=Dennis Wilson - Paccific Ocean Blue (2012 DSD Remastered) [Delu
DTITLE=xue Edition disc1]
DYEAR=1977
DGENRE=Pop
TTITLE0=River Song
TTITLE1=What's Wrong
TTITLE2=Moonshine
TTITLE3=Friday Night
TTITLE4=Dreamer
TTITLE5=Thoughts Of You
TTITLE6=Time
TTITLE7=You and I
TTITLE8=Paciffic Ocean Blues
TTITLE9=Farewell My Friend
TTITLE10=Rainbows
TTITLE11=End Of The Show
TTITLE12=Tug Of Love (Previously Unreleased)
TTITLE13=Only With You (Previously Unreleased)
TTITLE14=Holy Man (Previously Unreleased)
TTITLE15=Mexico (Previously Unreleased)
EXTD=
EXTT0=
EXTT1=
EXTT2=
EXTT3=
EXTT4=
EXTT5=
EXTT6=
EXTT7=
EXTT8=
EXTT9=
EXTT10=
EXTT11=
EXTT12=
EXTT13=
EXTT14=
EXTT15=
PLAYORDER=
